<svg xmlns="http://www.w3.org/2000/svg" width="59" height="31" viewBox="0 0 59 31" fill="none">
<path d="M28.5435 1.67994V1.20549C28.4898 0.541258 27.9485 0.0174409 27.2785 0H27.2104C26.5336 0.0177365 25.9882 0.548648 25.9427 1.22056V4.02027C27.2885 4.00933 28.3921 2.99096 28.5435 1.67994ZM55.5615 13.8738C56.3417 13.8738 57.5316 13.7901 58.2446 13.6908C58.6791 13.5802 59 13.1891 59 12.7182C59 12.1628 58.5512 11.7129 57.9976 11.7129C57.9976 11.7129 58.0069 11.7105 58.0097 11.7088H55.3089C54.2561 11.7088 53.8924 11.3454 53.8924 10.1444V1.3057C53.8635 0.630529 53.3133 0.0907514 52.634 0.0907514C51.9363 0.0907514 51.3705 0.657726 51.3705 1.35684C51.3705 1.35684 51.3681 1.353 51.3681 1.35093V10.1444C51.3678 13.2376 53.203 13.8738 55.5615 13.8738ZM28.5435 12.6393V4.02824C27.2145 4.03357 26.1206 5.02326 25.9427 6.30828V12.5888C25.9454 12.5826 25.946 12.5781 25.946 12.5781C25.946 13.2982 26.5289 13.882 27.249 13.882C27.9452 13.882 28.5107 13.3311 28.5435 12.6393ZM41.6957 13.8708C42.3733 13.8708 42.9234 13.3343 42.9548 12.6623V8.56198H47.4944V12.6422C47.5125 13.3216 48.0661 13.8685 48.7482 13.8685C49.4229 13.8685 49.9713 13.3319 49.999 12.6609V3.99573C49.999 0.939145 48.3458 0.120016 45.8413 0.120016H44.5887C42.0836 0.120016 40.4304 0.939145 40.4304 3.99573V12.6151C40.4372 13.3091 40.9995 13.8708 41.6957 13.8708ZM42.9544 3.99573C42.9544 2.72166 43.3185 2.32081 44.5884 2.32081H45.841C47.1299 2.32081 47.4942 2.72166 47.4942 3.99573V6.43333H42.9544V3.99573ZM57.6595 30.3163H57.718C58.4006 30.3004 58.9482 29.7494 58.9614 29.0653V21.7488C58.9614 17.8739 57.0751 16.6554 53.6977 16.6554C52.6439 16.6554 50.6642 16.8174 49.6846 16.9638C49.1211 17.0545 48.9217 17.2177 48.9217 17.8911V29.0657C48.9284 29.7562 49.491 30.3155 50.1813 30.3155C50.8778 30.3155 51.4442 29.7485 51.4442 29.0494V29.0547V18.9822C52.0433 18.9097 53.0419 18.837 53.9505 18.837C55.6932 18.837 56.42 19.6742 56.42 21.7488V29.0949C56.4476 29.7654 56.9885 30.3019 57.6595 30.3163ZM41.9503 18.8187C43.3055 18.8187 44.3622 18.8633 45.1578 18.9174C45.7183 18.9112 46.1696 18.4554 46.1696 17.8934C46.1696 17.4246 45.8551 17.0338 45.4259 16.9114C44.6698 16.7994 43.3689 16.6554 41.9505 16.6554C39.7894 16.6554 37.03 17.9463 37.03 22.2572V24.8769C37.03 29.1706 39.9357 30.4624 41.8963 30.4624C43.7666 30.4624 44.9466 30.3353 45.854 30.1535C46.0909 30.0994 46.1985 29.9539 46.1985 29.7169V24.5438C46.1932 24.5476 46.1894 24.5502 46.1894 24.5502C46.1894 23.8562 45.6271 23.2912 44.9333 23.2912C44.2955 23.2912 43.7739 23.7698 43.694 24.39V28.2418C43.1299 28.2799 42.5683 28.2971 41.8963 28.2971C40.8245 28.2971 39.572 27.4605 39.572 24.8769V22.2572C39.572 19.6742 40.734 18.8187 41.9503 18.8187ZM34.6691 29.0781V18.0705C34.6691 17.3705 34.1027 16.8014 33.4041 16.8014C32.7328 16.8014 32.1887 17.3262 32.1472 17.9874V29.0266C32.1533 29.7201 32.7153 30.2832 33.4118 30.2832C34.0879 30.2832 34.6358 29.7479 34.6691 29.0781ZM27.4443 22.9489L25.2657 21.729C24.0857 21.0745 23.7772 20.7112 23.7772 20.1093C23.7772 19.2911 24.3394 18.8187 25.6835 18.8187C26.6466 18.8187 27.6213 18.8686 28.5998 18.9476C29.1535 18.9201 29.5954 18.4652 29.5954 17.905C29.5954 17.4175 29.2606 17.0119 28.8116 16.8943C28.7385 16.8819 28.6594 16.8718 28.5809 16.8606C28.5697 16.86 28.5606 16.8582 28.5508 16.8582L28.5511 16.8574C27.7679 16.7491 26.6579 16.6554 25.7923 16.6554C22.4158 16.6554 21.2535 18.1095 21.2535 20.1096C21.2535 21.3843 21.7066 22.4393 23.396 23.4405L25.7923 24.8772C26.9903 25.5866 27.3351 25.9508 27.3351 26.6603C27.3351 27.7156 26.8452 28.2974 25.2297 28.2974C24.7147 28.2974 23.5261 28.2442 22.6747 28.1779C22.1066 28.1897 21.6488 28.6521 21.6488 29.2241C21.6488 29.6997 21.9712 30.0982 22.406 30.2241C22.4697 30.2368 22.5355 30.2495 22.6031 30.2605C22.6338 30.2637 22.6627 30.2706 22.6933 30.2706C22.6933 30.2706 22.6824 30.2726 22.6789 30.2741C23.3819 30.3917 24.1819 30.4627 25.1934 30.4627C28.8246 30.4627 29.9689 28.4984 29.9689 26.6606C29.9695 25.2222 29.4412 24.0589 27.4443 22.9489ZM19.9384 13.8738C21.8081 13.8738 22.9881 13.747 23.8952 13.5652C24.1309 13.5096 24.2409 13.3644 24.2409 13.1286V7.77303C24.1642 7.14838 23.6382 6.66301 22.9969 6.66301C22.301 6.66301 21.7366 7.22848 21.7366 7.92615L21.7355 7.92493V11.6555C21.1715 11.6907 20.6095 11.7088 19.9384 11.7088C18.8667 11.7088 17.6141 10.8713 17.6141 8.28912V5.66857C17.6141 3.08555 18.7761 2.23095 19.9929 2.23095C21.4136 2.23095 22.5036 2.27943 23.3119 2.33649C23.781 2.29421 24.1731 1.92884 24.23 1.4405C24.2952 0.882094 23.8952 0.375127 23.3391 0.310092C23.3391 0.310092 23.3506 0.307432 23.3583 0.306545C22.5901 0.196875 21.3458 0.0653292 19.9926 0.0653292C17.8312 0.0653292 15.0723 1.35654 15.0723 5.66829V8.28857C15.0726 12.5828 17.9772 13.8738 19.9384 13.8738ZM39.5637 1.14016C39.5637 0.564017 39.115 0.0972547 38.5501 0.0608951H30.8336C30.8336 0.0620775 30.8371 0.0644424 30.8371 0.0644424C30.2415 0.0644424 29.7603 0.546874 29.7603 1.14341C29.7603 1.73877 30.2415 2.2212 30.8371 2.2212L30.8312 2.22297H33.375V12.6417C33.41 13.3236 33.9679 13.8658 34.657 13.8658C35.368 13.8658 35.947 13.289 35.947 12.5743C35.947 12.5743 35.9477 12.5787 35.9506 12.5837V2.22326H38.5076C39.0932 2.2076 39.5637 1.7299 39.5637 1.14016ZM15.2815 18.8187H18.3928C18.9242 18.7918 19.3463 18.3552 19.3463 17.8163C19.3463 17.3439 19.0191 16.9501 18.5808 16.8422C18.5348 16.8345 18.4864 16.8278 18.4383 16.8204C18.4058 16.8166 18.3751 16.8112 18.3421 16.8112C18.3421 16.8112 18.3501 16.8089 18.353 16.8083C17.8097 16.7299 17.0123 16.6551 15.5346 16.6551C13.1738 16.6551 11.3409 17.2895 11.3409 20.3833V26.7333C11.3409 29.8244 13.1734 30.4618 15.5346 30.4618C17.2574 30.4618 18.0569 30.3586 18.6035 30.2699C19.0304 30.1517 19.3433 29.7635 19.3433 29.2974C19.3433 28.7836 18.9637 28.3644 18.471 28.2967H15.2815C14.2275 28.2967 13.8478 27.9325 13.8478 26.7333V24.3853H18.11H18.1079C18.6707 24.3853 19.1271 23.9268 19.1271 23.3634C19.1271 22.8212 18.7067 22.384 18.1755 22.3473H13.8478V20.3831C13.8478 19.1829 14.2275 18.8187 15.2815 18.8187ZM0.471998 13.6565C1.01715 13.7463 2.7603 13.8738 4.04974 13.8738C7.68086 13.8738 9.74911 11.9089 9.74911 8.30656V5.63309C9.74911 2.03083 7.68086 0.0659204 4.04974 0.0659204C2.7603 0.0656248 1.01715 0.192441 0.471998 0.283488C0.162839 0.338175 0 0.484206 0 0.848691V13.091C0 13.4558 0.162839 13.6015 0.471998 13.6565ZM2.52371 2.24898C2.90426 2.23036 3.37744 2.1937 4.05004 2.1937C5.86515 2.1937 7.24338 2.90375 7.24338 5.63281V8.30656C7.24338 11.0359 5.86515 11.7463 4.05004 11.7463C3.37744 11.7463 2.90426 11.7088 2.52371 11.6907V2.24898ZM9.74911 22.2209C9.74911 18.62 7.68086 16.6551 4.04974 16.6551C2.7603 16.6551 1.01686 16.7811 0.471998 16.8724C0.162839 16.9271 0 17.0719 0 17.4361V29.6805C0 30.0447 0.162839 30.189 0.471998 30.2457C1.01715 30.3353 2.7603 30.4621 4.04974 30.4621C7.68086 30.4621 9.74911 28.4978 9.74911 24.8952V22.2209ZM7.2431 24.8952C7.2431 27.6234 5.86488 28.3334 4.04974 28.3334C3.37714 28.3334 2.90396 28.2971 2.52342 28.2799V18.837C2.90396 18.8184 3.37714 18.782 4.04974 18.782C5.86488 18.782 7.2431 19.4918 7.2431 22.2209V24.8952ZM13.4637 12.6186C13.4637 12.6186 13.4723 12.6417 13.4802 12.6783V1.08044C13.3534 0.496917 12.8386 0.0597126 12.2188 0.0597126C11.5996 0.0597126 11.0849 0.494847 10.9577 1.07601V12.7528C11.0256 13.3866 11.5536 13.8815 12.2032 13.8815C12.8997 13.8817 13.4637 13.3157 13.4637 12.6186Z" fill="#66CCCC"/>
</svg>
